<svg version="1.1" width="16" height="16" xmlns="http://www.w3.org/2000/svg" xmlns:xlink="http://www.w3.org/1999/xlink">
  <symbol fill="black" viewBox="0 0 16 16">
    <path d="M12.1183432,2.60240177 L16,6.53736069 L16,12.0650411 L12.0236686,16 L3.97633136,16 L0,11.9713516 L0,6.53736069 L3.97633136,2.60240177 L12.1183432,2.60240177 Z M11.5502959,3.53929675 L4.5443787,3.53929675 L1.5147929,6.53736069 L1.5147929,9.53542463 L4.5443787,12.5334886 L11.5502959,12.5334886 L14.5798817,9.53542463 L14.5798817,6.53736069 L11.5502959,3.53929675 Z M11.0117647,6.77176679 L11.0117647,11.22218 L4.98823529,11.22218 L4.98823529,6.77176679 L11.0117647,6.77176679 Z M11.1058824,4.36112628 L13.4588235,6.67904985 L13.4588235,8.90425647 L12.0470588,10.2950106 L12.0470588,5.84459736 L3.95294118,5.84459736 L3.95294118,10.2950106 L2.54117647,8.90425647 L2.54117647,6.67904985 L4.89411765,4.36112628 L11.1058824,4.36112628 Z M4,0 L4.97121075,1.04761905 L4,2 L4,0 Z M6.36276396,0 L7.33397472,1.04761905 L6.36276396,2 L6.36276396,0 Z M8.72552792,0 L9.60844679,1.04761905 L8.72552792,2 L8.72552792,0 Z M11,0 L11.9712108,1.04761905 L11,2 L11,0 Z" id="path-1"></path>
  </symbol>
</svg>